# xmcd
#
# Track frame offsets: 
#        150
#        11847
#        23022
#        34897
#        48457
#        59830
#        73580
#        88032
#        98002
#        111432
#        124640
#        135960
#        148672
#        160027
#        172125
#        182475
#        192900
#        203412
#        217009
#        227505
#        240030
#        252375
#
# Disc length: 3539 seconds
#
# Revision: 2
# Processed by: cddbd v1.5.2PL0 Copyright (c) Steve Scherf et al.
# Submitted via: ExactAudioCopy v1.0b1
#
DISCID=2f0dd116
DTITLE=Muddy Waters - One More Mile - Disc 1
DYEAR=1994
DGENRE=Blues
TTITLE0=Hard Days (mono)
TTITLE1=Muddy Jumps One (mono)
TTITLE2=Burying Ground (mono)
TTITLE3=You Gonna Need My Help (mono)
TTITLE4=Rollin' And Tumbin' (Part 2) (mono)
TTITLE5=Rollin' Stone (alt) (mono)
TTITLE6=Country Boy (mono)
TTITLE7=She's So Pretty (mono)
TTITLE8=Oh Yeah (mono)
TTITLE9=I Don't Know Why (mono)
TTITLE10=I Want To Be Loved (mono)
TTITLE11=I Got To Find My Baby (mono)
TTITLE12=Crawlin' Kingsnake (alt) (mono)
TTITLE13=Read Way Back (alt - undubbed) (mono)
TTITLE14=Tiger In Your Tank (mono)
TTITLE15=Meanest Woman (mono)
TTITLE16=I Got My Brand On You (mono)
TTITLE17=Lonesome Bedroom Blues (mono)
TTITLE18=Messin' With The Man (mono)
TTITLE19=Five Long Years (mono)
TTITLE20=You Don't Have To Go (mono)
TTITLE21=Elevate Me Mama (mono)
EXTD=
EXTT0=
EXTT1=
EXTT2=
EXTT3=
EXTT4=
EXTT5=
EXTT6=
EXTT7=
EXTT8=
EXTT9=
EXTT10=
EXTT11=
EXTT12=
EXTT13=
EXTT14=
EXTT15=
EXTT16=
EXTT17=
EXTT18=
EXTT19=
EXTT20=
EXTT21=
PLAYORDER=
